<svg width="27" height="25" viewBox="0 0 27 25" fill="none" xmlns="http://www.w3.org/2000/svg">
<path fill-rule="evenodd" clip-rule="evenodd" d="M2.5 6.99999C1.39543 6.99999 0.5 7.89542 0.5 8.99999V16C0.5 17.1046 1.39543 18 2.5 18H8.50069L14.4272 23.9269C15.5611 25.0609 17.5 24.2578 17.5 22.6542V2.34581C17.5 0.742149 15.5611 -0.060932 14.4272 1.07307L8.50069 6.99999H2.5ZM24.5337 12.5C24.5337 9.42323 23.2806 6.82926 20.7264 4.65256C20.306 4.29434 20.2556 3.66318 20.6139 3.24283C20.9721 2.82247 21.6032 2.77211 22.0236 3.13033C25.0144 5.67904 26.5337 8.8241 26.5337 12.5C26.5337 16.1782 25.0122 19.3067 22.0174 21.8175C21.5942 22.1723 20.9635 22.1169 20.6087 21.6936C20.2538 21.2704 20.3093 20.6397 20.7325 20.2849C23.2827 18.1467 24.5337 15.5745 24.5337 12.5Z" fill="white"/>
</svg>
