<svg width="19" height="17" viewBox="0 0 19 17" fill="none" xmlns="http://www.w3.org/2000/svg">
<path fill-rule="evenodd" clip-rule="evenodd" d="M11.0282 0.5C11.4923 0.5 11.9394 0.664667 12.2804 0.961211L13.4696 2.24531C13.768 2.50479 14.1476 2.66329 14.5487 2.69887L14.7218 2.70652H15.2692C17.0535 2.70652 18.5 3.81913 18.5 5.5V13.4565C18.5 15.1374 17.0535 16.5 15.2692 16.5H3.73077C1.94646 16.5 0.5 15.1374 0.5 13.4565V5.5C0.5 3.81913 1.94646 2.70652 3.73077 2.70652H4.27818C4.74229 2.70652 5.18937 2.54185 5.53039 2.24531L6.71961 0.961211C7.06063 0.664667 7.50771 0.5 7.97182 0.5H11.0282ZM5.84649 6.05945C5.71687 5.96897 5.54381 5.9844 5.43252 6.08781L5.38891 6.13746L3.56009 8.69935C3.52099 8.75413 3.5 8.81953 3.5 8.88658C3.5 9.04347 3.61255 9.17437 3.76216 9.20464L3.82833 9.21124H4.91841L4.92175 9.39077C5.01722 11.9523 7.14741 14 9.76126 14C10.1693 14 10.5 13.6729 10.5 13.2695C10.5 12.8661 10.1693 12.539 9.76126 12.539C7.95894 12.539 6.48753 11.1381 6.40001 9.37733L6.39589 9.21124H7.48597C7.55377 9.21124 7.61991 9.19048 7.67531 9.15182C7.80493 9.06134 7.84818 8.89493 7.78691 8.75661L7.7542 8.69935L5.92538 6.13746C5.90378 6.1072 5.87709 6.08081 5.84649 6.05945ZM9.23874 4.5C8.83075 4.5 8.5 4.82705 8.5 5.23049C8.5 5.63393 8.83075 5.96098 9.23874 5.96098C11.0411 5.96098 12.5125 7.36195 12.6 9.12267L12.6041 9.28876H11.514C11.4462 9.28876 11.3801 9.30952 11.3247 9.34818C11.1951 9.43866 11.1518 9.60507 11.2131 9.74339L11.2458 9.80065L13.0746 12.3625C13.0962 12.3928 13.1229 12.4192 13.1535 12.4405C13.2831 12.531 13.4562 12.5156 13.5675 12.4122L13.6111 12.3625L15.4399 9.80065C15.479 9.74587 15.5 9.68047 15.5 9.61342C15.5 9.45653 15.3875 9.32563 15.2378 9.29536L15.1717 9.28876H14.0816L14.0783 9.10923C13.9828 6.54765 11.8526 4.5 9.23874 4.5Z" fill="white"/>
</svg>
