<svg width="29" height="11" viewBox="0 0 29 11" fill="none" xmlns="http://www.w3.org/2000/svg">
<path fill-rule="evenodd" clip-rule="evenodd" d="M14.5935 4.27564H14.4065C11.2376 4.32658 9.15801 4.93785 8.16782 6.10944L8.14686 6.70968C8.10681 7.5532 8.028 8.14096 7.91044 8.47298C7.66569 9.16416 7.33115 9.48751 5.95752 9.89382C4.15046 10.4283 2.60332 10.5 1.77588 10.5C1.00755 10.5 0.465088 9.7241 0.30643 9.29851L0.232027 9.04708L0.158044 8.74724C-0.0383223 7.86378 -0.278281 5.93622 0.982763 4.27217C1.52736 3.55353 2.40977 2.83999 3.63087 2.18859C6.33712 0.883116 9.61459 0.161669 13.4633 0.0242503L14.1546 0.00663948L14.1546 0L14.4998 0.00300374L14.8454 0L14.8454 0.00663948L15.5367 0.0242503C19.3854 0.161669 22.6629 0.883116 25.3691 2.18859C26.5902 2.83999 27.4726 3.55353 28.0172 4.27217C29.3812 6.07198 28.9892 8.18006 28.7956 8.94191L28.7233 9.20702C28.617 9.60014 28.0516 10.5 27.2241 10.5L26.8268 10.4945C25.9493 10.4701 24.5914 10.352 23.0425 9.89382C21.6688 9.48751 21.3343 9.16416 21.0896 8.47298C20.9459 8.06718 20.8601 7.27934 20.8322 6.10944C19.842 4.93785 17.7624 4.32658 14.5935 4.27564Z" fill="white"/>
</svg>
