<svg width="19" height="19" viewBox="0 0 19 19" fill="none" xmlns="http://www.w3.org/2000/svg">
<path fill-rule="evenodd" clip-rule="evenodd" d="M9.5 0.5C14.4706 0.5 18.5 4.3556 18.5 9.11173C18.5 13.8679 14.4706 17.7235 9.5 17.7235C8.80783 17.7235 8.1285 17.6491 7.46202 17.5005L6.86485 17.3545C6.14614 17.2021 5.39851 17.2639 4.71516 17.5319L4.48988 17.6288L4.10242 17.8066C2.66645 18.4495 1.79756 18.6453 1.49575 18.3942C1.22017 18.1649 1.29128 17.5782 1.70906 16.6341C2.12955 15.684 2.13456 14.6055 1.72994 13.6556L1.63696 13.4541L1.49043 13.1506C0.830142 11.739 0.5 10.3927 0.5 9.11173C0.5 4.3556 4.52944 0.5 9.5 0.5Z" fill="white"/>
</svg>
