<svg width="19" height="24" viewBox="0 0 19 24" fill="none" xmlns="http://www.w3.org/2000/svg">
<path fill-rule="evenodd" clip-rule="evenodd" d="M5.47966 22H13.4482C13.9983 22 14.4442 22.4477 14.4442 23C14.4442 23.5128 14.0597 23.9355 13.5643 23.9933L13.4482 24H5.47966C4.92955 24 4.4836 23.5523 4.4836 23C4.4836 22.4872 4.86812 22.0645 5.3635 22.0067L5.47966 22H13.4482H5.47966ZM17.5332 10.6035C18.083 10.6197 18.5157 11.0804 18.4996 11.6324C18.4577 13.0647 18.0014 14.5824 17.2274 15.9284C14.7519 20.233 9.26924 21.7079 4.98155 19.2226C2.23886 17.6329 0.571076 14.7458 0.500264 11.6258C0.487732 11.0737 0.923409 10.6159 1.47338 10.6033C2.02334 10.5907 2.47934 11.0281 2.49187 11.5803C2.547 14.0091 3.84354 16.2536 5.97761 17.4906C9.31248 19.4236 13.5768 18.2764 15.5021 14.9284C16.1165 13.86 16.4764 12.6628 16.5083 11.5737C16.5244 11.0217 16.9833 10.5873 17.5332 10.6035ZM9.46392 0C12.2145 0 14.4442 2.23858 14.4442 5V11.5C14.4442 14.2614 12.2145 16.5 9.46392 16.5C6.71336 16.5 4.4836 14.2614 4.4836 11.5V5C4.4836 2.23858 6.71336 0 9.46392 0Z" fill="white"/>
</svg>
